<svg width="208" height="208" viewBox="0 0 208 208" fill="none" xmlns="http://www.w3.org/2000/svg">
<g clip-path="url(#clip0_107_69)">
<path opacity="0.1" d="M104 208C161.438 208 208 161.438 208 104C208 46.5624 161.438 0 104 0C46.5624 0 0 46.5624 0 104C0 161.438 46.5624 208 104 208Z" fill="#E0F4FF"/>
<path d="M157.205 54.6642C138.011 54.6957 119.332 48.4646 104.001 36.9169C88.6703 48.465 69.9904 54.696 50.7968 54.6642C49.2195 54.6642 47.6455 54.6253 46.0891 54.5384V87.9066C46.1085 117.901 58.0473 145.537 84.252 160.124L104 171.085L123.748 160.124C149.954 145.538 161.891 117.902 161.911 87.907V54.5373C160.355 54.6242 158.779 54.6642 157.205 54.6642Z" fill="#FAFDFF"/>
<path d="M117.928 80.2119V93.1276C117.928 93.6441 117.723 94.1396 117.358 94.5049C116.992 94.8701 116.497 95.0754 115.98 95.0754C115.464 95.0754 114.968 94.8701 114.603 94.5049C114.238 94.1396 114.032 93.6441 114.032 93.1276V80.2119C114.032 75.1975 109.532 71.1149 104 71.1149C98.4684 71.1149 93.9675 75.1975 93.9675 80.2119V94.0813C93.9675 94.5979 93.7623 95.0933 93.397 95.4586C93.0318 95.8239 92.5363 96.0291 92.0197 96.0291C91.5031 96.0291 91.0077 95.8239 90.6424 95.4586C90.2772 95.0933 90.0719 94.5979 90.0719 94.0813V80.2119C90.0719 73.048 96.3188 67.2193 104 67.2193C111.681 67.2193 117.928 73.048 117.928 80.2119Z" fill="#292A2E"/>
<path d="M117.928 93.1276C117.928 93.6441 117.723 94.1396 117.358 94.5049C116.992 94.8701 116.497 95.0754 115.98 95.0754C115.464 95.0754 114.968 94.8701 114.603 94.5049C114.238 94.1396 114.032 93.6441 114.032 93.1276V80.2119C114.032 75.1975 109.532 71.1149 104 71.1149C98.4684 71.1149 93.9675 75.1975 93.9675 80.2119V94.0813C93.9675 94.5979 93.7623 95.0933 93.397 95.4586C93.0318 95.8239 92.5363 96.0291 92.0197 96.0291C91.5031 96.0291 91.0077 95.8239 90.6424 95.4586C90.2772 95.0933 90.0719 94.5979 90.0719 94.0813V80.2119C90.0719 73.048 96.3188 67.2193 104 67.2193C111.681 67.2193 117.928 73.048 117.928 80.2119V93.1276Z" fill="#2491CE"/>
<path d="M122.275 91.6819H85.7252C83.5937 91.6819 81.8659 93.4098 81.8659 95.5412V129.969C81.8659 132.1 83.5937 133.828 85.7252 133.828H122.275C124.407 133.828 126.134 132.1 126.134 129.969V95.5412C126.134 93.4098 124.407 91.6819 122.275 91.6819Z" fill="#2491CE"/>
<path d="M100.362 109.347C100.362 110.03 100.554 110.699 100.916 111.278C101.279 111.857 101.797 112.323 102.411 112.622V118.213C102.418 118.63 102.588 119.028 102.885 119.321C103.182 119.613 103.583 119.778 104 119.778C104.417 119.778 104.818 119.613 105.115 119.321C105.413 119.028 105.583 118.63 105.589 118.213V112.621C106.174 112.338 106.672 111.903 107.032 111.361C107.391 110.82 107.6 110.192 107.635 109.543C107.67 108.895 107.53 108.248 107.231 107.671C106.932 107.094 106.484 106.608 105.933 106.263C105.382 105.918 104.749 105.727 104.099 105.709C103.45 105.692 102.807 105.848 102.239 106.163C101.67 106.478 101.196 106.939 100.866 107.499C100.536 108.058 100.362 108.696 100.362 109.346V109.347Z" fill="#FAFDFF"/>
</g>
<defs>
<clipPath id="clip0_107_69">
<rect width="208" height="208" fill="white"/>
</clipPath>
</defs>
</svg>
