<svg width="26" height="26" viewBox="0 0 26 26" fill="none" xmlns="http://www.w3.org/2000/svg">
<path d="M19.9969 0.43634C16.6945 0.43634 14.0142 3.11659 14.0142 6.41904V8.81212H3.24537C1.92918 8.81212 0.852295 9.87704 0.852295 11.2052V23.1706C0.852295 24.4988 1.92918 25.5637 3.24537 25.5637H17.6039C18.932 25.5637 19.9969 24.4988 19.9969 23.1706V11.2052C19.9969 9.88901 18.932 8.81212 17.6039 8.81212H16.4073V6.41904C16.4073 4.43278 18.0107 2.82942 19.9969 2.82942C21.9832 2.82942 23.5866 4.43278 23.5866 6.41904V8.81212H25.9796V6.41904C25.9796 3.11659 23.2994 0.43634 19.9969 0.43634ZM10.4246 14.7948C11.7408 14.7948 12.8177 15.8597 12.8177 17.1879C12.8177 18.5161 11.7528 19.581 10.4246 19.581C9.10842 19.581 8.03153 18.5161 8.03153 17.1879C8.03153 15.8717 9.10842 14.7948 10.4246 14.7948Z" fill="#FAFDFF"/>
</svg>
