<svg width="279" height="52" viewBox="0 0 279 52" fill="none" xmlns="http://www.w3.org/2000/svg">
<rect width="279" height="52" fill="white"/>
<rect width="64" height="31.9999" transform="translate(0 10)" fill="white"/>
<path fill-rule="evenodd" clip-rule="evenodd" d="M48 26.3637C48 25.2292 47.8961 24.1383 47.7032 23.091H32.3265V29.2801H41.1132C40.7347 31.2801 39.5844 32.9746 37.8553 34.1092V38.1237H43.1317C46.2189 35.3383 48 31.2365 48 26.3637Z" fill="#4285F4"/>
<path fill-rule="evenodd" clip-rule="evenodd" d="M32.3265 42C36.7347 42 40.4304 40.5674 43.1317 38.1237L37.8553 34.1092C36.3933 35.0692 34.5232 35.6363 32.3265 35.6363C28.0742 35.6363 24.475 32.8218 23.1911 29.04H17.7366V33.1854C20.423 38.4145 25.9444 42 32.3265 42Z" fill="#34A853"/>
<path fill-rule="evenodd" clip-rule="evenodd" d="M23.1911 29.04C22.8646 28.08 22.679 27.0546 22.679 26.0001C22.679 24.9455 22.8646 23.9201 23.1911 22.9601V18.8146H17.7366C16.6308 20.9746 16 23.4183 16 26.0001C16 28.5819 16.6308 31.0254 17.7366 33.1854L23.1911 29.04Z" fill="#FBBC05"/>
<path fill-rule="evenodd" clip-rule="evenodd" d="M32.3265 16.3637C34.7236 16.3637 36.8757 17.1709 38.5677 18.7564L43.2505 14.1673C40.423 11.5855 36.7273 10 32.3265 10C25.9444 10 20.423 13.5856 17.7366 18.8146L23.1911 22.9601C24.475 19.1783 28.0742 16.3637 32.3265 16.3637Z" fill="#EA4335"/>
<rect width="188" height="41" transform="translate(64 5.5)" fill="white"/>
<path d="M88.0332 29.2041C88.0332 28.9404 87.9922 28.7061 87.9102 28.501C87.834 28.2959 87.6963 28.1084 87.4971 27.9385C87.2979 27.7686 87.0166 27.6045 86.6533 27.4463C86.2959 27.2822 85.8389 27.1152 85.2822 26.9453C84.6729 26.7578 84.1104 26.5498 83.5947 26.3213C83.085 26.0869 82.6396 25.8174 82.2588 25.5127C81.8779 25.2021 81.582 24.8477 81.3711 24.4492C81.1602 24.0449 81.0547 23.5791 81.0547 23.0518C81.0547 22.5303 81.1631 22.0557 81.3799 21.6279C81.6025 21.2002 81.916 20.8311 82.3203 20.5205C82.7305 20.2041 83.2139 19.9609 83.7705 19.791C84.3271 19.6152 84.9424 19.5273 85.6162 19.5273C86.5654 19.5273 87.3828 19.7031 88.0684 20.0547C88.7598 20.4062 89.29 20.8779 89.6592 21.4697C90.0342 22.0615 90.2217 22.7148 90.2217 23.4297H88.0332C88.0332 23.0078 87.9424 22.6357 87.7607 22.3135C87.585 21.9854 87.3154 21.7275 86.9521 21.54C86.5947 21.3525 86.1406 21.2588 85.5898 21.2588C85.0684 21.2588 84.6348 21.3379 84.2891 21.4961C83.9434 21.6543 83.6855 21.8682 83.5156 22.1377C83.3457 22.4072 83.2607 22.7119 83.2607 23.0518C83.2607 23.292 83.3164 23.5117 83.4277 23.7109C83.5391 23.9043 83.709 24.0859 83.9375 24.2559C84.166 24.4199 84.4531 24.5752 84.7988 24.7217C85.1445 24.8682 85.5518 25.0088 86.0205 25.1436C86.7295 25.3545 87.3477 25.5889 87.875 25.8467C88.4023 26.0986 88.8418 26.3857 89.1934 26.708C89.5449 27.0303 89.8086 27.3965 89.9844 27.8066C90.1602 28.2109 90.248 28.6709 90.248 29.1865C90.248 29.7256 90.1396 30.2119 89.9229 30.6455C89.7061 31.0732 89.3955 31.4395 88.9912 31.7441C88.5928 32.043 88.1123 32.2744 87.5498 32.4385C86.9932 32.5967 86.3721 32.6758 85.6865 32.6758C85.0713 32.6758 84.4648 32.5938 83.8672 32.4297C83.2754 32.2656 82.7363 32.0166 82.25 31.6826C81.7637 31.3428 81.377 30.9209 81.0898 30.417C80.8027 29.9072 80.6592 29.3125 80.6592 28.6328H82.8652C82.8652 29.0488 82.9355 29.4033 83.0762 29.6963C83.2227 29.9893 83.4248 30.2295 83.6826 30.417C83.9404 30.5986 84.2393 30.7334 84.5791 30.8213C84.9248 30.9092 85.2939 30.9531 85.6865 30.9531C86.2021 30.9531 86.6328 30.8799 86.9785 30.7334C87.3301 30.5869 87.5938 30.3818 87.7695 30.1182C87.9453 29.8545 88.0332 29.5498 88.0332 29.2041ZM94.3459 22.9902V32.5H92.2189V22.9902H94.3459ZM92.0783 20.4941C92.0783 20.1719 92.1838 19.9053 92.3947 19.6943C92.6115 19.4775 92.9103 19.3691 93.2912 19.3691C93.6662 19.3691 93.9621 19.4775 94.1789 19.6943C94.3957 19.9053 94.5041 20.1719 94.5041 20.4941C94.5041 20.8105 94.3957 21.0742 94.1789 21.2852C93.9621 21.4961 93.6662 21.6016 93.2912 21.6016C92.9103 21.6016 92.6115 21.4961 92.3947 21.2852C92.1838 21.0742 92.0783 20.8105 92.0783 20.4941ZM102.847 22.9902H104.772V32.2363C104.772 33.0918 104.59 33.8184 104.227 34.416C103.864 35.0137 103.357 35.4678 102.706 35.7783C102.056 36.0947 101.303 36.2529 100.448 36.2529C100.084 36.2529 99.68 36.2002 99.2347 36.0947C98.7952 35.9893 98.3675 35.8193 97.9515 35.585C97.5413 35.3564 97.1986 35.0547 96.9232 34.6797L97.9163 33.4316C98.2562 33.8359 98.6312 34.1318 99.0413 34.3193C99.4515 34.5068 99.8821 34.6006 100.333 34.6006C100.82 34.6006 101.233 34.5098 101.573 34.3281C101.918 34.1523 102.185 33.8916 102.372 33.5459C102.56 33.2002 102.654 32.7783 102.654 32.2803V25.1436L102.847 22.9902ZM96.387 27.8506V27.666C96.387 26.9453 96.4749 26.2891 96.6507 25.6973C96.8265 25.0996 97.0784 24.5869 97.4066 24.1592C97.7347 23.7256 98.1331 23.3945 98.6019 23.166C99.0706 22.9316 99.6009 22.8145 100.193 22.8145C100.808 22.8145 101.332 22.9258 101.766 23.1484C102.205 23.3711 102.572 23.6904 102.865 24.1064C103.158 24.5166 103.386 25.0088 103.55 25.583C103.72 26.1514 103.846 26.7842 103.928 27.4814V28.0703C103.852 28.75 103.723 29.3711 103.541 29.9336C103.36 30.4961 103.119 30.9824 102.821 31.3926C102.522 31.8027 102.153 32.1191 101.713 32.3418C101.28 32.5645 100.767 32.6758 100.175 32.6758C99.595 32.6758 99.0706 32.5557 98.6019 32.3154C98.139 32.0752 97.7405 31.7383 97.4066 31.3047C97.0784 30.8711 96.8265 30.3613 96.6507 29.7754C96.4749 29.1836 96.387 28.542 96.387 27.8506ZM98.5052 27.666V27.8506C98.5052 28.2842 98.5462 28.6885 98.6282 29.0635C98.7161 29.4385 98.848 29.7695 99.0238 30.0566C99.2054 30.3379 99.4339 30.5605 99.7093 30.7246C99.9905 30.8828 100.322 30.9619 100.702 30.9619C101.201 30.9619 101.608 30.8564 101.924 30.6455C102.246 30.4346 102.493 30.1504 102.662 29.793C102.838 29.4297 102.961 29.0254 103.032 28.5801V26.9893C102.996 26.6436 102.923 26.3213 102.812 26.0225C102.706 25.7236 102.563 25.4629 102.381 25.2402C102.2 25.0117 101.971 24.8359 101.696 24.7129C101.42 24.584 101.095 24.5195 100.72 24.5195C100.339 24.5195 100.008 24.6016 99.7269 24.7656C99.4456 24.9297 99.2142 25.1553 99.0325 25.4424C98.8568 25.7295 98.7249 26.0635 98.637 26.4443C98.5491 26.8252 98.5052 27.2324 98.5052 27.666ZM109.16 25.0205V32.5H107.041V22.9902H109.037L109.16 25.0205ZM108.782 27.3936L108.096 27.3848C108.102 26.7109 108.196 26.0928 108.377 25.5303C108.565 24.9678 108.823 24.4844 109.151 24.0801C109.485 23.6758 109.883 23.3652 110.346 23.1484C110.809 22.9258 111.325 22.8145 111.893 22.8145C112.35 22.8145 112.763 22.8789 113.132 23.0078C113.507 23.1309 113.827 23.333 114.09 23.6143C114.36 23.8955 114.565 24.2617 114.706 24.7129C114.846 25.1582 114.916 25.7061 114.916 26.3564V32.5H112.79V26.3477C112.79 25.8906 112.722 25.5303 112.587 25.2666C112.458 24.9971 112.268 24.8066 112.016 24.6953C111.77 24.5781 111.462 24.5195 111.093 24.5195C110.73 24.5195 110.405 24.5957 110.118 24.748C109.831 24.9004 109.587 25.1084 109.388 25.3721C109.195 25.6357 109.045 25.9404 108.94 26.2861C108.834 26.6318 108.782 27.001 108.782 27.3936ZM122.89 30.2588V22.9902H125.017V32.5H123.013L122.89 30.2588ZM123.189 28.2812L123.901 28.2637C123.901 28.9023 123.831 29.4912 123.69 30.0303C123.549 30.5635 123.333 31.0293 123.04 31.4277C122.747 31.8203 122.372 32.1279 121.915 32.3506C121.458 32.5674 120.91 32.6758 120.271 32.6758C119.808 32.6758 119.383 32.6084 118.997 32.4736C118.61 32.3389 118.276 32.1309 117.995 31.8496C117.719 31.5684 117.506 31.2021 117.353 30.751C117.201 30.2998 117.125 29.7607 117.125 29.1338V22.9902H119.243V29.1514C119.243 29.4971 119.284 29.7871 119.366 30.0215C119.448 30.25 119.559 30.4346 119.7 30.5752C119.84 30.7158 120.005 30.8154 120.192 30.874C120.38 30.9326 120.579 30.9619 120.79 30.9619C121.393 30.9619 121.868 30.8447 122.214 30.6104C122.565 30.3701 122.814 30.0479 122.961 29.6436C123.113 29.2393 123.189 28.7852 123.189 28.2812ZM129.405 24.8184V36.1562H127.287V22.9902H129.238L129.405 24.8184ZM135.601 27.6572V27.8418C135.601 28.5332 135.519 29.1748 135.355 29.7666C135.197 30.3525 134.96 30.8652 134.643 31.3047C134.333 31.7383 133.949 32.0752 133.492 32.3154C133.035 32.5557 132.508 32.6758 131.91 32.6758C131.318 32.6758 130.8 32.5674 130.354 32.3506C129.915 32.1279 129.543 31.8145 129.238 31.4102C128.933 31.0059 128.687 30.5312 128.5 29.9863C128.318 29.4355 128.189 28.832 128.113 28.1758V27.4639C128.189 26.7666 128.318 26.1338 128.5 25.5654C128.687 24.9971 128.933 24.5078 129.238 24.0977C129.543 23.6875 129.915 23.3711 130.354 23.1484C130.794 22.9258 131.306 22.8145 131.892 22.8145C132.49 22.8145 133.02 22.9316 133.483 23.166C133.946 23.3945 134.336 23.7227 134.652 24.1504C134.969 24.5723 135.206 25.082 135.364 25.6797C135.522 26.2715 135.601 26.9307 135.601 27.6572ZM133.483 27.8418V27.6572C133.483 27.2178 133.442 26.8105 133.36 26.4355C133.278 26.0547 133.149 25.7207 132.973 25.4336C132.798 25.1465 132.572 24.9238 132.297 24.7656C132.027 24.6016 131.702 24.5195 131.321 24.5195C130.946 24.5195 130.624 24.584 130.354 24.7129C130.085 24.8359 129.859 25.0088 129.678 25.2314C129.496 25.4541 129.355 25.7148 129.256 26.0137C129.156 26.3066 129.086 26.626 129.045 26.9717V28.6768C129.115 29.0986 129.235 29.4854 129.405 29.8369C129.575 30.1885 129.815 30.4697 130.126 30.6807C130.442 30.8857 130.846 30.9883 131.339 30.9883C131.72 30.9883 132.045 30.9062 132.314 30.7422C132.584 30.5781 132.804 30.3525 132.973 30.0654C133.149 29.7725 133.278 29.4355 133.36 29.0547C133.442 28.6738 133.483 28.2695 133.483 27.8418ZM144.65 30.3906L146.847 22.9902H148.2L147.831 25.2051L145.616 32.5H144.403L144.65 30.3906ZM143.358 22.9902L145.071 30.4258L145.212 32.5H143.859L141.283 22.9902H143.358ZM150.257 30.3379L151.918 22.9902H153.984L151.417 32.5H150.064L150.257 30.3379ZM148.429 22.9902L150.6 30.3027L150.872 32.5H149.659L147.418 25.1963L147.049 22.9902H148.429ZM157.783 22.9902V32.5H155.656V22.9902H157.783ZM155.515 20.4941C155.515 20.1719 155.62 19.9053 155.831 19.6943C156.048 19.4775 156.347 19.3691 156.728 19.3691C157.103 19.3691 157.399 19.4775 157.616 19.6943C157.832 19.9053 157.941 20.1719 157.941 20.4941C157.941 20.8105 157.832 21.0742 157.616 21.2852C157.399 21.4961 157.103 21.6016 156.728 21.6016C156.347 21.6016 156.048 21.4961 155.831 21.2852C155.62 21.0742 155.515 20.8105 155.515 20.4941ZM164.552 22.9902V24.5371H159.191V22.9902H164.552ZM160.738 20.6611H162.856V29.8721C162.856 30.165 162.897 30.3906 162.979 30.5488C163.067 30.7012 163.187 30.8037 163.339 30.8564C163.492 30.9092 163.67 30.9355 163.875 30.9355C164.022 30.9355 164.163 30.9268 164.297 30.9092C164.432 30.8916 164.54 30.874 164.622 30.8564L164.631 32.4736C164.456 32.5264 164.25 32.5732 164.016 32.6143C163.788 32.6553 163.524 32.6758 163.225 32.6758C162.739 32.6758 162.308 32.5908 161.933 32.4209C161.558 32.2451 161.265 31.9609 161.054 31.5684C160.843 31.1758 160.738 30.6543 160.738 30.0039V20.6611ZM168.369 19V32.5H166.259V19H168.369ZM168 27.3936L167.314 27.3848C167.32 26.7285 167.411 26.1221 167.587 25.5654C167.768 25.0088 168.02 24.5254 168.342 24.1152C168.671 23.6992 169.063 23.3799 169.52 23.1572C169.977 22.9287 170.484 22.8145 171.041 22.8145C171.509 22.8145 171.931 22.8789 172.306 23.0078C172.687 23.1367 173.015 23.3447 173.291 23.6318C173.566 23.9131 173.774 24.2822 173.915 24.7393C174.061 25.1904 174.134 25.7412 174.134 26.3916V32.5H172.007V26.374C172.007 25.917 171.94 25.5537 171.805 25.2842C171.676 25.0146 171.486 24.8213 171.234 24.7041C170.982 24.5811 170.674 24.5195 170.311 24.5195C169.93 24.5195 169.593 24.5957 169.3 24.748C169.013 24.9004 168.773 25.1084 168.58 25.3721C168.386 25.6357 168.24 25.9404 168.14 26.2861C168.046 26.6318 168 27.001 168 27.3936ZM187.032 22.9902H188.957V32.2363C188.957 33.0918 188.775 33.8184 188.412 34.416C188.049 35.0137 187.542 35.4678 186.892 35.7783C186.241 36.0947 185.488 36.2529 184.633 36.2529C184.269 36.2529 183.865 36.2002 183.42 36.0947C182.98 35.9893 182.553 35.8193 182.137 35.585C181.726 35.3564 181.384 35.0547 181.108 34.6797L182.101 33.4316C182.441 33.8359 182.816 34.1318 183.226 34.3193C183.637 34.5068 184.067 34.6006 184.518 34.6006C185.005 34.6006 185.418 34.5098 185.758 34.3281C186.103 34.1523 186.37 33.8916 186.558 33.5459C186.745 33.2002 186.839 32.7783 186.839 32.2803V25.1436L187.032 22.9902ZM180.572 27.8506V27.666C180.572 26.9453 180.66 26.2891 180.836 25.6973C181.012 25.0996 181.264 24.5869 181.592 24.1592C181.92 23.7256 182.318 23.3945 182.787 23.166C183.256 22.9316 183.786 22.8145 184.378 22.8145C184.993 22.8145 185.518 22.9258 185.951 23.1484C186.391 23.3711 186.757 23.6904 187.05 24.1064C187.343 24.5166 187.571 25.0088 187.735 25.583C187.905 26.1514 188.031 26.7842 188.113 27.4814V28.0703C188.037 28.75 187.908 29.3711 187.726 29.9336C187.545 30.4961 187.305 30.9824 187.006 31.3926C186.707 31.8027 186.338 32.1191 185.898 32.3418C185.465 32.5645 184.952 32.6758 184.36 32.6758C183.78 32.6758 183.256 32.5557 182.787 32.3154C182.324 32.0752 181.926 31.7383 181.592 31.3047C181.264 30.8711 181.012 30.3613 180.836 29.7754C180.66 29.1836 180.572 28.542 180.572 27.8506ZM182.69 27.666V27.8506C182.69 28.2842 182.731 28.6885 182.813 29.0635C182.901 29.4385 183.033 29.7695 183.209 30.0566C183.391 30.3379 183.619 30.5605 183.894 30.7246C184.176 30.8828 184.507 30.9619 184.888 30.9619C185.386 30.9619 185.793 30.8564 186.109 30.6455C186.432 30.4346 186.678 30.1504 186.848 29.793C187.023 29.4297 187.146 29.0254 187.217 28.5801V26.9893C187.182 26.6436 187.108 26.3213 186.997 26.0225C186.892 25.7236 186.748 25.4629 186.566 25.2402C186.385 25.0117 186.156 24.8359 185.881 24.7129C185.605 24.584 185.28 24.5195 184.905 24.5195C184.524 24.5195 184.193 24.6016 183.912 24.7656C183.631 24.9297 183.399 25.1553 183.218 25.4424C183.042 25.7295 182.91 26.0635 182.822 26.4443C182.734 26.8252 182.69 27.2324 182.69 27.666ZM190.84 27.8506V27.6484C190.84 26.9629 190.94 26.3271 191.139 25.7412C191.338 25.1494 191.625 24.6367 192 24.2031C192.381 23.7637 192.844 23.4238 193.389 23.1836C193.94 22.9375 194.561 22.8145 195.252 22.8145C195.949 22.8145 196.57 22.9375 197.115 23.1836C197.666 23.4238 198.132 23.7637 198.513 24.2031C198.894 24.6367 199.184 25.1494 199.383 25.7412C199.582 26.3271 199.682 26.9629 199.682 27.6484V27.8506C199.682 28.5361 199.582 29.1719 199.383 29.7578C199.184 30.3438 198.894 30.8564 198.513 31.2959C198.132 31.7295 197.669 32.0693 197.124 32.3154C196.579 32.5557 195.961 32.6758 195.27 32.6758C194.572 32.6758 193.948 32.5557 193.398 32.3154C192.853 32.0693 192.39 31.7295 192.009 31.2959C191.628 30.8564 191.338 30.3438 191.139 29.7578C190.94 29.1719 190.84 28.5361 190.84 27.8506ZM192.958 27.6484V27.8506C192.958 28.2783 193.002 28.6826 193.09 29.0635C193.178 29.4443 193.316 29.7783 193.503 30.0654C193.691 30.3525 193.931 30.5781 194.224 30.7422C194.517 30.9062 194.865 30.9883 195.27 30.9883C195.662 30.9883 196.002 30.9062 196.289 30.7422C196.582 30.5781 196.822 30.3525 197.01 30.0654C197.197 29.7783 197.335 29.4443 197.423 29.0635C197.517 28.6826 197.564 28.2783 197.564 27.8506V27.6484C197.564 27.2266 197.517 26.8281 197.423 26.4531C197.335 26.0723 197.194 25.7354 197.001 25.4424C196.814 25.1494 196.573 24.9209 196.28 24.7568C195.993 24.5869 195.65 24.502 195.252 24.502C194.854 24.502 194.508 24.5869 194.215 24.7568C193.928 24.9209 193.691 25.1494 193.503 25.4424C193.316 25.7354 193.178 26.0723 193.09 26.4531C193.002 26.8281 192.958 27.2266 192.958 27.6484ZM201.143 27.8506V27.6484C201.143 26.9629 201.242 26.3271 201.442 25.7412C201.641 25.1494 201.928 24.6367 202.303 24.2031C202.684 23.7637 203.147 23.4238 203.692 23.1836C204.242 22.9375 204.864 22.8145 205.555 22.8145C206.252 22.8145 206.873 22.9375 207.418 23.1836C207.969 23.4238 208.435 23.7637 208.816 24.2031C209.197 24.6367 209.487 25.1494 209.686 25.7412C209.885 26.3271 209.985 26.9629 209.985 27.6484V27.8506C209.985 28.5361 209.885 29.1719 209.686 29.7578C209.487 30.3438 209.197 30.8564 208.816 31.2959C208.435 31.7295 207.972 32.0693 207.427 32.3154C206.882 32.5557 206.264 32.6758 205.573 32.6758C204.875 32.6758 204.251 32.5557 203.7 32.3154C203.156 32.0693 202.693 31.7295 202.312 31.2959C201.931 30.8564 201.641 30.3438 201.442 29.7578C201.242 29.1719 201.143 28.5361 201.143 27.8506ZM203.261 27.6484V27.8506C203.261 28.2783 203.305 28.6826 203.393 29.0635C203.481 29.4443 203.618 29.7783 203.806 30.0654C203.993 30.3525 204.234 30.5781 204.527 30.7422C204.82 30.9062 205.168 30.9883 205.573 30.9883C205.965 30.9883 206.305 30.9062 206.592 30.7422C206.885 30.5781 207.125 30.3525 207.313 30.0654C207.5 29.7783 207.638 29.4443 207.726 29.0635C207.82 28.6826 207.866 28.2783 207.866 27.8506V27.6484C207.866 27.2266 207.82 26.8281 207.726 26.4531C207.638 26.0723 207.497 25.7354 207.304 25.4424C207.116 25.1494 206.876 24.9209 206.583 24.7568C206.296 24.5869 205.953 24.502 205.555 24.502C205.156 24.502 204.811 24.5869 204.518 24.7568C204.231 24.9209 203.993 25.1494 203.806 25.4424C203.618 25.7354 203.481 26.0723 203.393 26.4531C203.305 26.8281 203.261 27.2266 203.261 27.6484ZM217.941 22.9902H219.866V32.2363C219.866 33.0918 219.684 33.8184 219.321 34.416C218.957 35.0137 218.451 35.4678 217.8 35.7783C217.15 36.0947 216.397 36.2529 215.541 36.2529C215.178 36.2529 214.774 36.2002 214.329 36.0947C213.889 35.9893 213.461 35.8193 213.045 35.585C212.635 35.3564 212.292 35.0547 212.017 34.6797L213.01 33.4316C213.35 33.8359 213.725 34.1318 214.135 34.3193C214.545 34.5068 214.976 34.6006 215.427 34.6006C215.913 34.6006 216.327 34.5098 216.666 34.3281C217.012 34.1523 217.279 33.8916 217.466 33.5459C217.654 33.2002 217.747 32.7783 217.747 32.2803V25.1436L217.941 22.9902ZM211.481 27.8506V27.666C211.481 26.9453 211.569 26.2891 211.745 25.6973C211.92 25.0996 212.172 24.5869 212.5 24.1592C212.829 23.7256 213.227 23.3945 213.696 23.166C214.164 22.9316 214.695 22.8145 215.287 22.8145C215.902 22.8145 216.426 22.9258 216.86 23.1484C217.299 23.3711 217.665 23.6904 217.958 24.1064C218.251 24.5166 218.48 25.0088 218.644 25.583C218.814 26.1514 218.94 26.7842 219.022 27.4814V28.0703C218.946 28.75 218.817 29.3711 218.635 29.9336C218.454 30.4961 218.213 30.9824 217.914 31.3926C217.616 31.8027 217.246 32.1191 216.807 32.3418C216.373 32.5645 215.861 32.6758 215.269 32.6758C214.689 32.6758 214.164 32.5557 213.696 32.3154C213.233 32.0752 212.834 31.7383 212.5 31.3047C212.172 30.8711 211.92 30.3613 211.745 29.7754C211.569 29.1836 211.481 28.542 211.481 27.8506ZM213.599 27.666V27.8506C213.599 28.2842 213.64 28.6885 213.722 29.0635C213.81 29.4385 213.942 29.7695 214.118 30.0566C214.299 30.3379 214.528 30.5605 214.803 30.7246C215.084 30.8828 215.415 30.9619 215.796 30.9619C216.294 30.9619 216.702 30.8564 217.018 30.6455C217.34 30.4346 217.586 30.1504 217.756 29.793C217.932 29.4297 218.055 29.0254 218.125 28.5801V26.9893C218.09 26.6436 218.017 26.3213 217.906 26.0225C217.8 25.7236 217.657 25.4629 217.475 25.2402C217.293 25.0117 217.065 24.8359 216.789 24.7129C216.514 24.584 216.189 24.5195 215.814 24.5195C215.433 24.5195 215.102 24.6016 214.821 24.7656C214.539 24.9297 214.308 25.1553 214.126 25.4424C213.951 25.7295 213.819 26.0635 213.731 26.4443C213.643 26.8252 213.599 27.2324 213.599 27.666ZM224.42 19V32.5H222.294V19H224.42ZM231.023 32.6758C230.32 32.6758 229.684 32.5615 229.116 32.333C228.553 32.0986 228.073 31.7734 227.675 31.3574C227.282 30.9414 226.98 30.4521 226.769 29.8896C226.558 29.3271 226.453 28.7207 226.453 28.0703V27.7188C226.453 26.9746 226.561 26.3008 226.778 25.6973C226.995 25.0938 227.297 24.5781 227.683 24.1504C228.07 23.7168 228.527 23.3857 229.054 23.1572C229.582 22.9287 230.153 22.8145 230.768 22.8145C231.448 22.8145 232.043 22.9287 232.552 23.1572C233.062 23.3857 233.484 23.708 233.818 24.124C234.158 24.5342 234.41 25.0234 234.574 25.5918C234.744 26.1602 234.829 26.7871 234.829 27.4727V28.3779H227.481V26.8574H232.737V26.6904C232.725 26.3096 232.649 25.9521 232.509 25.6182C232.374 25.2842 232.166 25.0146 231.884 24.8096C231.603 24.6045 231.228 24.502 230.759 24.502C230.408 24.502 230.094 24.5781 229.819 24.7305C229.55 24.877 229.324 25.0908 229.142 25.3721C228.961 25.6533 228.82 25.9932 228.72 26.3916C228.627 26.7842 228.58 27.2266 228.58 27.7188V28.0703C228.58 28.4863 228.635 28.873 228.747 29.2305C228.864 29.582 229.034 29.8896 229.257 30.1533C229.479 30.417 229.749 30.625 230.065 30.7773C230.382 30.9238 230.742 30.9971 231.146 30.9971C231.656 30.9971 232.11 30.8945 232.509 30.6895C232.907 30.4844 233.253 30.1943 233.546 29.8193L234.662 30.9004C234.457 31.1992 234.19 31.4863 233.862 31.7617C233.534 32.0312 233.133 32.251 232.658 32.4209C232.189 32.5908 231.644 32.6758 231.023 32.6758Z" fill="#80868B"/>
</svg>
